# xmcd
# 
# Track frame offsets:
#     150
#     19825
#     47670
#     72402
#     87275
#     103472
#     127580
#     154017
#     173432
#     198077
# 
# Disc length: 2995
# 
# Revision: 4
# Processed by: cddbd v1.5.2PL0 Copyright (c) Steve Scherf et al.
# Submitted via: fre:ac v1.0.17
# 
DISCID=770bb10a
DTITLE=Boz Scaggs - Some Change
DYEAR=1994
DGENRE=Vocal
TTITLE0=You Got My Letter
TTITLE1=Some Change
TTITLE2=I'll Be The One
TTITLE3=Call Me
TTITLE4=Fly Like A Bird
TTITLE5=Sierra
TTITLE6=Lost It
TTITLE7=Time
TTITLE8=Illusion
TTITLE9=Follow That Man
EXTD=Record Label:\tVirgin Records America\nCatalog Number:\t7234 8 39489 2 S\nRecording Dates:\t?\nOriginal Release:\t1994\nCD Reissue:\tNA\n\nBoz Scaggs:\tVocals, Guitar, Synthesizers, Keyboards\nRicky Fataar:\tDrums, Percussion, Keyboards, Synthesizers
EXTT0=Austin de Lone:\tPiano
EXTT1=Fred Tackett:\tRhythm Guitar\nBooker T. Jones:\tHammond B3 Organ\nJames "Hutch" Hutchinson:\tBass
EXTT2=
EXTT3=Michael Omartian:\tAll Instruments, except\nWilliam "Smitty" Smith:\tOrgan Solo
EXTT4=Ricky Fataar:\tAccordian and Organ\nBoz Scaggs:\tBass and Piano
EXTT5=Booker T. Jones:\tHammond B3 Organ\nFred Tackett:\tAcoustic Guitar\nNathan East:\tBass
EXTT6=Barry Beckett:\tPiano\nKevin Bents:\tRhodes Piano\nNeil Stubenhaus:\tBass\nMichael Omartian:\tSynthesizers and Organ Solo
EXTT7=James "Hutch" Hutchinson:\tBass
EXTT8=Kevin Bents:\tRhodes Piano\nNathan East:\tBass
EXTT9=Nathan East:\tBass\nKevin Bents:\tRhodes Piano
PLAYORDER=
